# xmcd
#
# Track frame offsets:
#	150
#	19060
#	36307
#	53302
#	72212
#	89322
#	108537
#	123492
#	141472
#	156692
#	175245
#	192380
#	222632
#
# Disc length: 4009 seconds
#
# Revision: 2246924122
# Processed by: cddbd v1.5.2PL0 Copyright (c) Steve Scherf et al.
# Submitted via: EZCDAudioConverter 8.5.0.1
#
DISCID=c50fa70d
DTITLE=Jimmy Wayne
DYEAR=2003
DGENRE=Country
TTITLE0=After You
TTITLE1=Are You Ever Gonna Love Me
TTITLE2=Stay Gone
TTITLE3=Trespassin'
TTITLE4=Paper Angels
TTITLE5=You Are
TTITLE6=She Runs
TTITLE7=Just A Dream
TTITLE8=Blue and Brown
TTITLE9=I Love You This Much
TTITLE10=You're The One I'm Talking To
TTITLE11=The Rabbit
TTITLE12=Data Track
EXTD=
EXTT0=
EXTT1=
EXTT2=
EXTT3=
EXTT4=
EXTT5=
EXTT6=
EXTT7=
EXTT8=
EXTT9=
EXTT10=
EXTT11=
EXTT12=
PLAYORDER=
